<mxfile host="65bd71144e" scale="20" border="0">
    <diagram id="ox55puOnoM0L2l18HqQe" name="Page-1">
        <mxGraphModel dx="1454" dy="586" grid="1" gridSize="10" guides="1" tooltips="1" connect="1" arrows="1" fold="1" page="1" pageScale="1" pageWidth="827" pageHeight="1169" math="0" shadow="0">
            <root>
                <mxCell id="0"/>
                <mxCell id="1" parent="0"/>
                <mxCell id="38" value="" style="endArrow=classic;html=1;strokeWidth=2;entryX=0;entryY=0.5;entryDx=0;entryDy=0;startArrow=none;" parent="1" edge="1">
                    <mxGeometry width="50" height="50" relative="1" as="geometry">
                        <mxPoint x="323" y="389.6" as="sourcePoint"/>
                        <mxPoint x="363" y="389.6" as="targetPoint"/>
                        <Array as="points">
                            <mxPoint x="343" y="389.6"/>
                        </Array>
                    </mxGeometry>
                </mxCell>
                <mxCell id="52" value="&lt;span id=&quot;docs-internal-guid-ec26fdc3-7fff-6485-8974-949e62a5aeab&quot; style=&quot;font-weight:normal;&quot;&gt;&lt;span style=&quot;font-family: Montserrat, sans-serif; background-color: transparent; font-weight: 700; font-style: italic; font-variant-numeric: normal; font-variant-east-asian: normal; font-variant-alternates: normal; vertical-align: baseline;&quot;&gt;&lt;font style=&quot;font-size: 16px;&quot;&gt;L'' = (1 - θ)L&lt;/font&gt;&lt;/span&gt;&lt;span style=&quot;font-size: 14pt; font-family: Montserrat, sans-serif; background-color: transparent; font-weight: 700; font-style: italic; font-variant-numeric: normal; font-variant-east-asian: normal; font-variant-alternates: normal; vertical-align: baseline;&quot;&gt;&amp;nbsp; &amp;nbsp;&lt;/span&gt;&lt;/span&gt;&lt;i style=&quot;font-family: &amp;quot;Times New Roman&amp;quot;;&quot;&gt;&lt;font style=&quot;font-size: 18px;&quot;&gt;C&lt;/font&gt;&lt;/i&gt;&lt;i style=&quot;font-family: &amp;quot;Times New Roman&amp;quot;;&quot;&gt;&lt;sub&gt;&lt;font style=&quot;font-size: 12px;&quot;&gt;i, L''&lt;/font&gt;&lt;/sub&gt;&lt;/i&gt;" style="text;strokeColor=none;fillColor=none;html=1;fontSize=24;fontStyle=1;verticalAlign=middle;align=center;" parent="1" vertex="1">
                    <mxGeometry x="240" y="420" width="240" height="40" as="geometry"/>
                </mxCell>
                <mxCell id="57" value="" style="rounded=0;whiteSpace=wrap;html=1;strokeWidth=2;" vertex="1" parent="1">
                    <mxGeometry x="362" y="370" width="48" height="40" as="geometry"/>
                </mxCell>
                <mxCell id="59" style="edgeStyle=orthogonalEdgeStyle;html=1;strokeWidth=2;fontFamily=Times New Roman;fontSize=18;exitX=0.5;exitY=1;exitDx=0;exitDy=0;entryX=0.25;entryY=1;entryDx=0;entryDy=0;" edge="1" parent="1" source="57" target="52">
                    <mxGeometry relative="1" as="geometry">
                        <mxPoint x="387.00000000000045" y="420" as="sourcePoint"/>
                        <mxPoint x="310" y="470" as="targetPoint"/>
                        <Array as="points">
                            <mxPoint x="387" y="410"/>
                            <mxPoint x="387" y="460"/>
                        </Array>
                    </mxGeometry>
                </mxCell>
                <mxCell id="62" value="" style="endArrow=classic;html=1;strokeWidth=2;entryX=0;entryY=0.5;entryDx=0;entryDy=0;startArrow=none;" edge="1" parent="1">
                    <mxGeometry width="50" height="50" relative="1" as="geometry">
                        <mxPoint x="410" y="389.6" as="sourcePoint"/>
                        <mxPoint x="450" y="389.6" as="targetPoint"/>
                        <Array as="points">
                            <mxPoint x="430" y="389.6"/>
                        </Array>
                    </mxGeometry>
                </mxCell>
                <mxCell id="63" value="&lt;span id=&quot;docs-internal-guid-ec26fdc3-7fff-6485-8974-949e62a5aeab&quot; style=&quot;font-weight:normal;&quot;&gt;&lt;span style=&quot;font-family: Montserrat, sans-serif; background-color: transparent; font-weight: 700; font-style: italic; font-variant-numeric: normal; font-variant-east-asian: normal; font-variant-alternates: normal; vertical-align: baseline;&quot;&gt;&lt;font style=&quot;font-size: 16px;&quot;&gt;L&lt;/font&gt;&lt;/span&gt;&lt;/span&gt;" style="text;strokeColor=none;fillColor=none;html=1;fontSize=24;fontStyle=1;verticalAlign=middle;align=center;" vertex="1" parent="1">
                    <mxGeometry x="320" y="350" width="20" height="40" as="geometry"/>
                </mxCell>
                <mxCell id="65" value="&lt;font style=&quot;&quot; face=&quot;Times New Roman&quot;&gt;&lt;i style=&quot;&quot;&gt;&lt;font style=&quot;font-size: 18px;&quot;&gt;C&lt;/font&gt;&lt;/i&gt;&lt;i style=&quot;&quot;&gt;&lt;sub style=&quot;&quot;&gt;&lt;font style=&quot;font-size: 12px;&quot;&gt;i, L&lt;/font&gt;&lt;/sub&gt;&lt;/i&gt;&lt;/font&gt;" style="text;strokeColor=none;fillColor=none;html=1;fontSize=24;fontStyle=1;verticalAlign=middle;align=center;" vertex="1" parent="1">
                    <mxGeometry x="320" y="390" width="32" height="40" as="geometry"/>
                </mxCell>
                <mxCell id="66" value="&lt;font style=&quot;font-size: 16px;&quot;&gt;&lt;span id=&quot;docs-internal-guid-ec26fdc3-7fff-6485-8974-949e62a5aeab&quot; style=&quot;font-weight:normal;&quot;&gt;&lt;span style=&quot;font-family: Montserrat, sans-serif; background-color: transparent; font-weight: 700; font-style: italic; font-variant-numeric: normal; font-variant-east-asian: normal; font-variant-alternates: normal; vertical-align: baseline;&quot;&gt;L' =&amp;nbsp;&lt;/span&gt;&lt;/span&gt;&lt;span style=&quot;font-family: Montserrat, sans-serif; font-style: italic;&quot;&gt;θL&lt;/span&gt;&lt;/font&gt;" style="text;strokeColor=none;fillColor=none;html=1;fontSize=24;fontStyle=1;verticalAlign=middle;align=center;" vertex="1" parent="1">
                    <mxGeometry x="428" y="350" width="42" height="40" as="geometry"/>
                </mxCell>
                <mxCell id="67" value="&lt;font style=&quot;&quot; face=&quot;Times New Roman&quot;&gt;&lt;i style=&quot;&quot;&gt;&lt;font style=&quot;font-size: 18px;&quot;&gt;C&lt;/font&gt;&lt;/i&gt;&lt;i style=&quot;&quot;&gt;&lt;sub style=&quot;&quot;&gt;&lt;font style=&quot;font-size: 12px;&quot;&gt;i, L'&lt;/font&gt;&lt;/sub&gt;&lt;/i&gt;&lt;/font&gt;" style="text;strokeColor=none;fillColor=none;html=1;fontSize=24;fontStyle=1;verticalAlign=middle;align=center;" vertex="1" parent="1">
                    <mxGeometry x="428" y="390" width="32" height="40" as="geometry"/>
                </mxCell>
            </root>
        </mxGraphModel>
    </diagram>
</mxfile>